<?xml version="1.0" encoding="utf-8"?>
<!-- Generator: Adobe Illustrator 16.0.0, SVG Export Plug-In . SVG Version: 6.00 Build 0)  -->
<!DOCTYPE svg PUBLIC "-//W3C//DTD SVG 1.1//EN" "http://www.w3.org/Graphics/SVG/1.1/DTD/svg11.dtd">
<svg version="1.1" id="Layer_1" xmlns="http://www.w3.org/2000/svg" xmlns:xlink="http://www.w3.org/1999/xlink" x="0px" y="0px"
	 width="1291.482px" height="30.121px" viewBox="0 0 1291.482 30.121" enable-background="new 0 0 1291.482 30.121"
	 xml:space="preserve">
<g>
	<path fill="#EF8484" d="M2.296,5.193C3.656,3.172,5.222,1.719,7,0.834c1.421-0.711,2.666-0.969,3.732-0.768
		c1.087,0.205,2.356,0.636,3.818,1.297c1.456,0.657,2.455,1.038,2.985,1.14c1.551,0.292,2.843-0.111,3.886-1.212
		c0.625-0.668,1.158-0.962,1.602-0.878c0.356,0.068,0.555,0.321,0.592,0.764c-0.503,0.826-1.053,1.379-1.651,1.661
		c-0.495,0.221-0.749,0.389-0.769,0.501c-0.006,0.021-0.006,0.075,0,0.164c0.006,0.086,0,0.171-0.014,0.246
		c-0.092,0.575-0.452,0.947-1.077,1.125c-0.626,0.178-1.272,0.338-1.938,0.488c0.857,1.812,1.122,3.708,0.796,5.692
		c-0.369,2.249-1.318,4.039-2.836,5.372c-1.522,1.331-3.176,1.835-4.95,1.5c-0.854-0.162-1.572-0.595-2.154-1.292
		c-0.583-0.704-0.807-1.434-0.683-2.193c0.105-0.649,0.311-1.152,0.618-1.504c0.305-0.356,0.661-0.496,1.07-0.417
		c1.066,0.202,1.493,0.951,1.282,2.245c-0.072,0.438-0.469,0.786-1.187,1.042c0.202,0.432,0.394,0.664,0.571,0.698l0.079,0.014
		c0.071,0.015,0.198,0.051,0.379,0.119c0.181,0.062,0.325,0.107,0.434,0.123c1.422,0.27,2.748-0.207,3.978-1.429
		c1.23-1.221,1.996-2.785,2.311-4.692c0.25-1.501-0.129-3.274-1.134-5.312c-0.81-1.647-1.679-2.557-2.604-2.73l-0.134-0.027
		c-0.175-0.034-0.312,0.012-0.406,0.133c0.359,0.479,0.479,1.111,0.349,1.891c-0.093,0.573-0.199,0.942-0.319,1.117
		c-0.167,0.226-0.454,0.301-0.864,0.219c-0.444-0.079-1.084-0.434-1.917-1.052c-0.832-0.616-1.3-0.937-1.409-0.958
		C9.167,3.866,8.805,3.897,8.35,4.006C7.758,4.153,7.259,4.393,6.856,4.73C6.973,5.008,7.185,5.223,7.491,5.38
		c0.236,0.123,0.482,0.246,0.735,0.376c0.181,0.133,0.349,0.338,0.5,0.623c0.157,0.284,0.226,0.475,0.211,0.57
		C8.866,7.39,8.66,7.681,8.325,7.835C8.066,7.964,7.594,8.033,6.914,8.042C5.533,8.073,4.825,8.087,4.789,8.081
		c-0.39-0.072-0.923,0.102-1.597,0.526c-0.676,0.42-1.049,0.871-1.13,1.347l-0.008,0.054c-0.03,0.171-0.006,0.307,0.072,0.397
		c0.739-0.134,1.132-0.199,1.186-0.188c0.568,0.106,0.772,0.66,0.608,1.65c-0.044,0.267-0.341,0.739-0.892,1.409
		c-0.553,0.67-0.879,1.331-0.985,1.98c-0.235,1.407,0.281,2.892,1.549,4.445c1.494,1.857,3.619,3.045,6.374,3.564
		c3.699,0.697,6.966,0.132,9.793-1.685c-0.482-0.07-1.066-0.086-1.753-0.036c-0.687,0.046-1.136,0.05-1.35,0.007
		c-0.068-0.014-0.456-0.171-1.16-0.483c-0.201-0.214-0.29-0.396-0.266-0.554c0.017-0.091,0.164-0.191,0.448-0.298
		c0.284-0.103,0.55-0.128,0.799-0.085c0.144,0.027,0.383,0.048,0.718,0.062c0.339,0.017,0.595,0.039,0.773,0.078
		c0.321,0.057,0.988-0.157,2.006-0.654c1.196-0.581,2.239-1.251,3.134-2.003c0.749-0.645,1.143-1.108,1.194-1.395
		c0.006-0.039-0.059-0.217-0.199-0.538c-0.143-0.323-0.188-0.626-0.143-0.912c0.126-0.742,0.341-1.152,0.646-1.234
		c1.127-0.278,1.954-0.779,2.477-1.508c0.301-0.396,0.575-1.029,0.808-1.91c0.348-1.213,1.004-2.208,1.979-2.984
		c0.971-0.782,2.362-1.452,4.181-2.012c1.934-0.595,3.685-0.947,5.259-1.04c1.744-0.123,3.645,0.011,5.709,0.4
		c4.625,0.875,8.401,2.776,11.33,5.708c1.058,1.045,1.682,1.706,1.878,1.976c0.292,0.448,0.392,0.949,0.301,1.5
		c-0.034,0.209-0.074,0.407-0.126,0.598c-0.048,0.186-0.068,0.27-0.068,0.25c-0.191,1.162-0.489,1.707-0.9,1.626
		c-0.282-0.052-0.544-0.523-0.783-1.415c-0.078-0.31-0.341-0.663-0.789-1.062c-0.561-0.497-1.128-0.998-1.706-1.501
		c-0.528-0.471-1.371-0.967-2.536-1.48c-1.06-0.458-1.956-0.752-2.687-0.892c-1.066-0.201-2.024-0.215-2.878-0.041
		c-0.51,0.079-1.08,0.266-1.716,0.557c-0.516,0.239-0.871,0.341-1.066,0.301c-0.144-0.027-0.283-0.161-0.417-0.404
		c-0.134-0.24-0.29-0.376-0.468-0.411c-0.158-0.033-0.479,0.085-0.95,0.35c-0.479,0.263-0.873,0.583-1.19,0.957
		c-0.291,0.533-0.493,0.978-0.605,1.33c-0.328,0.882-0.68,1.549-1.06,2.01c-0.378,0.458-0.69,0.663-0.943,0.615
		c-0.387-0.071-0.636-0.499-0.738-1.287c-0.093-0.786-0.253-1.198-0.465-1.237c-0.195-0.036-0.441,0.197-0.734,0.7
		c-0.297,0.506-0.482,1.016-0.571,1.531c-0.032,0.191,0.01,0.615,0.119,1.289c0.11,0.666,0.141,1.147,0.097,1.43l-0.004,0.032
		c-0.084,0.494-0.252,0.93-0.505,1.306c-0.253,0.373-0.499,0.537-0.728,0.492c-0.195-0.037-0.417-0.208-0.67-0.526
		c-0.25-0.308-0.411-0.472-0.482-0.485c-0.02-0.007-0.047-0.012-0.082-0.014c-0.02,0.014-0.038,0.022-0.058,0.016
		c-0.121,0.292-0.192,0.494-0.209,0.61c-0.109,0.652,0.068,1.702,0.526,3.161c0.486,1.588,1.081,2.777,1.774,3.582
		c1.422,1.615,2.81,2.559,4.157,2.816c1.637,0.31,3.12,0.118,4.44-0.574c1.069-0.565,1.647-1.133,1.739-1.707l0.021-0.116
		c0.051-0.323,0.054-0.822,0-1.513c-0.051-0.688-0.056-1.16-0.017-1.406c0.057-0.342,0.202-0.604,0.437-0.786
		c0.227-0.18,0.486-0.248,0.77-0.196c0.553,0.107,1.064,0.682,1.531,1.734c0.161-0.063,0.246-0.164,0.271-0.303
		c0.091-0.552-0.193-1.196-0.853-1.941c-0.654-0.743-0.947-1.345-0.872-1.801c0.051-0.305,0.202-0.567,0.46-0.8
		c0.261-0.223,0.531-0.308,0.812-0.257l0.082,0.021c-0.185-0.668-0.675-1.315-1.464-1.962c-0.746-0.593-1.484-0.96-2.215-1.097
		c-0.55-0.103-1.162-0.034-1.836,0.212c-0.67,0.25-1.077,0.615-1.212,1.099l-0.008,0.057c-0.034,0.191,0.052,0.308,0.243,0.342
		c0.089,0.019,0.219,0.014,0.39-0.016c0.17-0.025,0.29-0.034,0.361-0.019c0.465,0.085,0.848,0.367,1.153,0.837
		c0.31,0.469,0.423,0.959,0.338,1.449c-0.085,0.515-0.366,0.945-0.854,1.282c-0.489,0.34-1.015,0.461-1.583,0.349
		c-0.749-0.144-1.302-0.558-1.667-1.258c-0.363-0.699-0.455-1.567-0.281-2.618c0.174-1.066,0.792-1.914,1.852-2.557
		c1.054-0.631,2.181-0.836,3.374-0.615c1.812,0.348,3.261,1.417,4.354,3.215c1.088,1.795,1.473,3.646,1.161,5.551
		c-0.388,2.365-1.586,4.211-3.59,5.544c-2.012,1.333-4.17,1.777-6.48,1.342l-1.148-0.221c-0.851-0.162-1.747-0.538-2.676-1.126
		c-1.078-0.692-1.979-1.538-2.705-2.529c-0.727-0.991-1.294-2.352-1.711-4.076c-0.401-1.671-0.523-3.001-0.359-3.99
		c0.269-1.639,1.083-3.377,2.443-5.213c1.354-1.835,2.755-3.069,4.194-3.702c3.125-1.356,6.272-1.736,9.458-1.132
		c1.35,0.257,2.613,0.602,3.79,1.043c0.809,0.308,1.569,0.657,2.276,1.046l0.906,0.498l0.214,0.039
		c0.055,0.01,0.092-0.001,0.116-0.038c-0.081-0.503-1.017-1.221-2.81-2.151c-2.08-1.062-4.454-1.845-7.122-2.345
		c-1.37-0.263-2.935-0.252-4.695,0.024C38.333,6.365,37.065,6.799,36.29,7.4c-0.233,0.192-0.817,0.779-1.75,1.764
		c-0.534,0.567-1.005,0.81-1.412,0.735c-0.267-0.051-0.469-0.28-0.608-0.674c-0.229-0.711-0.35-1.09-0.362-1.131
		c-1.071,0.957-1.655,1.716-1.753,2.292c-0.035,0.229-0.051,0.538-0.042,0.933c0.01,0.397,0,0.66-0.021,0.793
		c-0.075,0.456-0.225,0.841-0.454,1.152c-0.223,0.311-0.444,0.448-0.657,0.407c-0.174-0.034-0.335-0.182-0.475-0.444
		c-0.202-0.352-0.379-0.602-0.536-0.75c-0.167,0.223-0.407,0.415-0.728,0.572c-0.178,0.084-0.295,0.294-0.353,0.639l-0.038,0.229
		c-0.026,0.168-0.014,0.424,0.042,0.758c0.054,0.333,0.078,0.54,0.064,0.615c-0.126,0.766-0.441,1.222-0.943,1.385
		c-0.369,0.112-0.724,0.212-1.066,0.304c-0.441,0.656-0.793,1.244-1.059,1.743c-0.373,0.602-0.749,1.201-1.124,1.818
		c-0.475,0.859-0.787,1.748-0.938,2.685c-0.095,0.567-0.082,1.066,0.042,1.495c0.12,0.426,0.181,0.658,0.174,0.697
		c-0.055,0.321-0.23,0.46-0.534,0.396c-0.25-0.041-0.509-0.362-0.779-0.957c-0.268-0.586-0.369-1.085-0.302-1.488l0.028-0.198
		c0.048-0.287,0.085-0.561,0.113-0.834c-1.686,1.215-3.435,1.974-5.247,2.283c-1.692,0.267-3.74,0.178-6.143-0.28
		c-2.508-0.472-4.56-1.579-6.166-3.315c-1.275-1.376-2.188-2.946-2.732-4.703c-0.547-1.752-0.673-3.521-0.375-5.312
		C0.537,8.685,1.25,6.744,2.296,5.193"/>
	<path fill="#EF8484" d="M1289.188,5.193c-1.361-2.021-2.927-3.475-4.704-4.359c-1.421-0.711-2.665-0.969-3.731-0.768
		c-1.088,0.205-2.357,0.637-3.818,1.297c-1.457,0.657-2.455,1.038-2.985,1.141c-1.551,0.292-2.843-0.111-3.886-1.212
		c-0.626-0.668-1.158-0.962-1.603-0.878c-0.356,0.068-0.555,0.32-0.592,0.764c0.503,0.826,1.053,1.379,1.651,1.66
		c0.494,0.221,0.748,0.389,0.769,0.502c0.007,0.021,0.007,0.075,0,0.164c-0.007,0.086,0,0.17,0.014,0.246
		c0.093,0.574,0.452,0.946,1.077,1.125c0.625,0.178,1.271,0.338,1.938,0.488c-0.857,1.812-1.121,3.708-0.796,5.691
		c0.369,2.248,1.318,4.039,2.836,5.372c1.522,1.331,3.176,1.835,4.95,1.5c0.854-0.162,1.572-0.595,2.154-1.292
		c0.583-0.704,0.807-1.434,0.683-2.193c-0.105-0.649-0.311-1.152-0.618-1.504c-0.305-0.356-0.66-0.496-1.07-0.417
		c-1.066,0.202-1.493,0.951-1.282,2.245c0.071,0.438,0.469,0.786,1.187,1.042c-0.201,0.432-0.393,0.664-0.57,0.698l-0.08,0.014
		c-0.07,0.015-0.197,0.051-0.379,0.119c-0.182,0.062-0.324,0.107-0.434,0.123c-1.422,0.27-2.748-0.207-3.979-1.429
		c-1.23-1.221-1.996-2.785-2.311-4.692c-0.25-1.501,0.129-3.274,1.135-5.312c0.81-1.646,1.678-2.557,2.604-2.73l0.134-0.027
		c0.175-0.033,0.312,0.012,0.406,0.133c-0.358,0.479-0.479,1.111-0.349,1.892c0.094,0.573,0.199,0.942,0.318,1.116
		c0.168,0.227,0.454,0.301,0.865,0.22c0.443-0.079,1.084-0.435,1.917-1.052c0.831-0.617,1.3-0.938,1.409-0.958
		c0.27-0.055,0.631-0.023,1.086,0.085c0.592,0.146,1.092,0.387,1.494,0.725c-0.117,0.277-0.328,0.492-0.635,0.649
		c-0.236,0.123-0.482,0.246-0.735,0.376c-0.181,0.133-0.349,0.338-0.5,0.623c-0.157,0.283-0.226,0.475-0.212,0.57
		c0.072,0.44,0.277,0.731,0.613,0.886c0.259,0.13,0.73,0.198,1.41,0.208c1.381,0.03,2.09,0.045,2.126,0.038
		c0.39-0.071,0.923,0.102,1.597,0.526c0.676,0.42,1.05,0.871,1.131,1.347l0.008,0.054c0.029,0.172,0.006,0.308-0.072,0.397
		c-0.738-0.134-1.132-0.198-1.186-0.188c-0.568,0.106-0.772,0.66-0.608,1.65c0.044,0.268,0.341,0.738,0.892,1.408
		c0.553,0.67,0.879,1.331,0.984,1.98c0.236,1.407-0.28,2.892-1.549,4.445c-1.494,1.857-3.619,3.045-6.374,3.564
		c-3.698,0.697-6.966,0.132-9.793-1.685c0.482-0.07,1.066-0.086,1.753-0.036c0.688,0.046,1.136,0.05,1.35,0.007
		c0.068-0.014,0.456-0.171,1.16-0.483c0.201-0.214,0.289-0.396,0.266-0.554c-0.017-0.091-0.164-0.191-0.447-0.298
		c-0.284-0.103-0.551-0.128-0.799-0.085c-0.145,0.027-0.383,0.048-0.719,0.062c-0.339,0.017-0.595,0.039-0.772,0.078
		c-0.321,0.057-0.987-0.157-2.007-0.654c-1.195-0.581-2.238-1.251-3.133-2.003c-0.749-0.645-1.143-1.108-1.194-1.395
		c-0.006-0.039,0.059-0.217,0.199-0.538c0.144-0.323,0.188-0.626,0.144-0.912c-0.127-0.742-0.342-1.152-0.646-1.234
		c-1.127-0.277-1.955-0.779-2.478-1.508c-0.302-0.395-0.575-1.028-0.808-1.91c-0.348-1.213-1.004-2.207-1.979-2.984
		c-0.971-0.781-2.362-1.451-4.182-2.012c-1.934-0.595-3.684-0.947-5.259-1.039c-1.743-0.123-3.645,0.01-5.709,0.399
		c-4.624,0.875-8.401,2.776-11.33,5.708c-1.058,1.045-1.682,1.705-1.878,1.976c-0.293,0.448-0.393,0.949-0.301,1.501
		c0.033,0.209,0.073,0.406,0.126,0.598c0.048,0.186,0.068,0.27,0.068,0.25c0.191,1.161,0.489,1.706,0.9,1.626
		c0.282-0.052,0.544-0.523,0.783-1.415c0.078-0.31,0.341-0.662,0.789-1.062c0.562-0.497,1.128-0.998,1.706-1.501
		c0.527-0.472,1.371-0.967,2.535-1.48c1.061-0.458,1.956-0.752,2.688-0.893c1.066-0.201,2.023-0.215,2.878-0.041
		c0.51,0.08,1.08,0.267,1.716,0.558c0.516,0.239,0.871,0.341,1.066,0.302c0.145-0.027,0.283-0.162,0.417-0.404
		c0.134-0.24,0.29-0.377,0.468-0.41c0.158-0.033,0.479,0.085,0.95,0.35c0.479,0.263,0.872,0.583,1.19,0.956
		c0.291,0.533,0.492,0.978,0.605,1.329c0.327,0.883,0.68,1.55,1.059,2.01c0.379,0.458,0.691,0.663,0.943,0.615
		c0.387-0.071,0.636-0.498,0.738-1.287c0.093-0.786,0.252-1.198,0.465-1.237c0.195-0.036,0.441,0.197,0.734,0.7
		c0.297,0.506,0.482,1.016,0.57,1.53c0.032,0.191-0.01,0.615-0.118,1.289c-0.11,0.666-0.141,1.147-0.097,1.43l0.004,0.032
		c0.085,0.494,0.253,0.93,0.506,1.306c0.254,0.373,0.498,0.537,0.729,0.492c0.195-0.037,0.417-0.208,0.67-0.526
		c0.25-0.308,0.41-0.472,0.482-0.485c0.02-0.007,0.047-0.012,0.081-0.014c0.021,0.014,0.038,0.022,0.058,0.016
		c0.121,0.292,0.191,0.494,0.209,0.61c0.109,0.652-0.068,1.702-0.525,3.161c-0.486,1.588-1.081,2.777-1.774,3.582
		c-1.422,1.615-2.81,2.559-4.157,2.816c-1.637,0.31-3.119,0.118-4.439-0.574c-1.069-0.565-1.647-1.133-1.74-1.707l-0.021-0.116
		c-0.052-0.323-0.054-0.822,0-1.513c0.052-0.688,0.056-1.16,0.017-1.406c-0.057-0.342-0.201-0.604-0.436-0.786
		c-0.227-0.18-0.486-0.248-0.771-0.196c-0.554,0.107-1.064,0.682-1.531,1.734c-0.161-0.063-0.246-0.164-0.271-0.303
		c-0.091-0.552,0.192-1.196,0.853-1.941c0.654-0.743,0.947-1.345,0.871-1.801c-0.051-0.305-0.201-0.567-0.46-0.8
		c-0.261-0.223-0.53-0.308-0.812-0.257l-0.082,0.021c0.185-0.668,0.675-1.315,1.464-1.962c0.746-0.593,1.484-0.96,2.215-1.097
		c0.551-0.103,1.162-0.034,1.837,0.212c0.67,0.25,1.077,0.615,1.212,1.099l0.008,0.057c0.034,0.191-0.051,0.308-0.242,0.342
		c-0.09,0.019-0.22,0.014-0.391-0.016c-0.17-0.025-0.289-0.034-0.361-0.019c-0.465,0.085-0.848,0.367-1.152,0.837
		c-0.311,0.469-0.424,0.959-0.339,1.449c0.085,0.515,0.366,0.945,0.854,1.282c0.489,0.34,1.016,0.461,1.584,0.349
		c0.748-0.144,1.301-0.558,1.666-1.258c0.363-0.699,0.455-1.567,0.281-2.618c-0.174-1.066-0.793-1.914-1.852-2.557
		c-1.055-0.631-2.182-0.836-3.374-0.614c-1.812,0.348-3.261,1.417-4.354,3.215c-1.089,1.795-1.474,3.646-1.161,5.551
		c0.389,2.365,1.586,4.211,3.59,5.544c2.013,1.333,4.17,1.777,6.48,1.342l1.148-0.221c0.852-0.162,1.746-0.538,2.676-1.126
		c1.078-0.692,1.979-1.538,2.705-2.529c0.727-0.991,1.294-2.352,1.711-4.076c0.4-1.671,0.523-3.001,0.359-3.99
		c-0.27-1.639-1.083-3.377-2.443-5.213c-1.354-1.836-2.755-3.07-4.194-3.702c-3.124-1.356-6.272-1.736-9.458-1.132
		c-1.35,0.257-2.613,0.602-3.79,1.043c-0.809,0.309-1.569,0.656-2.276,1.047l-0.906,0.498l-0.213,0.038
		c-0.055,0.011-0.093-0.001-0.117-0.038c0.081-0.503,1.018-1.221,2.811-2.15c2.08-1.062,4.453-1.846,7.121-2.345
		c1.371-0.263,2.936-0.253,4.695,0.024c1.762,0.277,3.029,0.711,3.805,1.312c0.233,0.191,0.817,0.779,1.75,1.764
		c0.534,0.567,1.005,0.811,1.412,0.735c0.268-0.052,0.469-0.28,0.607-0.674c0.229-0.712,0.35-1.091,0.363-1.131
		c1.07,0.956,1.654,1.716,1.753,2.292c0.035,0.229,0.052,0.538,0.042,0.934c-0.011,0.396,0,0.66,0.021,0.793
		c0.075,0.456,0.226,0.842,0.454,1.152c0.223,0.311,0.443,0.447,0.656,0.406c0.175-0.033,0.336-0.182,0.476-0.443
		c0.202-0.353,0.379-0.602,0.536-0.75c0.168,0.223,0.407,0.414,0.729,0.572c0.178,0.084,0.295,0.293,0.353,0.639l0.038,0.229
		c0.025,0.169,0.014,0.424-0.043,0.759c-0.053,0.333-0.078,0.54-0.063,0.615c0.126,0.766,0.44,1.222,0.943,1.385
		c0.369,0.112,0.724,0.212,1.066,0.304c0.44,0.656,0.793,1.244,1.06,1.743c0.373,0.602,0.748,1.201,1.123,1.818
		c0.476,0.859,0.787,1.748,0.938,2.685c0.096,0.567,0.082,1.066-0.041,1.495c-0.12,0.426-0.182,0.658-0.175,0.697
		c0.055,0.321,0.229,0.46,0.534,0.396c0.249-0.041,0.509-0.362,0.778-0.957c0.268-0.586,0.369-1.085,0.302-1.488l-0.027-0.198
		c-0.049-0.287-0.086-0.561-0.113-0.834c1.686,1.215,3.435,1.974,5.246,2.283c1.692,0.267,3.74,0.178,6.143-0.28
		c2.509-0.472,4.561-1.579,6.166-3.315c1.275-1.376,2.188-2.946,2.732-4.703c0.547-1.752,0.672-3.521,0.375-5.312
		C1290.946,8.686,1290.232,6.744,1289.188,5.193"/>
	<path fill="#EF8484" d="M1234.523,14.204c0,0.829-0.47,1.5-1.049,1.5H57.836c-0.58,0-1.049-0.671-1.049-1.5l0,0
		c0-0.829,0.47-1.5,1.049-1.5h1175.638C1234.054,12.704,1234.523,13.375,1234.523,14.204L1234.523,14.204z"/>
</g>
</svg>
