<?xml version="1.0" encoding="utf-8"?>
<!-- Generator: Adobe Illustrator 16.0.0, SVG Export Plug-In . SVG Version: 6.00 Build 0)  -->
<!DOCTYPE svg PUBLIC "-//W3C//DTD SVG 1.1//EN" "http://www.w3.org/Graphics/SVG/1.1/DTD/svg11.dtd">
<svg version="1.1" id="Layer_1" xmlns="http://www.w3.org/2000/svg" xmlns:xlink="http://www.w3.org/1999/xlink" x="0px" y="0px"
	 width="1440px" height="244.499px" viewBox="1484 635.25 1440 244.499" enable-background="new 1484 635.25 1440 244.499"
	 xml:space="preserve">
<g>
	<rect x="1484" y="635.25" fill="#323132" width="1440" height="244.655"/>
	<g>
		<path fill="#EE8384" d="M1725.51,814.656l0.614-2.148h24.139l-5.801,17.432h0.306c1.221-1.736,2.772-3.662,4.658-5.811
			c1.883-2.135,4.001-4.127,6.342-5.953c2.341-1.85,4.839-3.387,7.487-4.672c2.648-1.271,5.296-1.902,7.946-1.902
			c3.875,0,6.854,1.139,8.938,3.43c2.092,2.291,3.138,5.122,3.138,8.49c0,1.829-0.257,3.762-0.764,5.811h0.303
			c1.017-1.527,2.395-3.32,4.126-5.346c1.73-2.049,3.689-3.984,5.88-5.811c2.191-1.85,4.557-3.387,7.105-4.672
			c2.548-1.271,5.097-1.902,7.645-1.902c4.275,0,7.662,1.139,10.16,3.43c2.492,2.291,3.744,5.122,3.744,8.49
			c0,1.727-0.282,3.43-0.838,5.113c-0.564,1.693-1.253,3.695-2.067,6.043l-9.928,28.266c-0.614,1.727-1.179,3.576-1.685,5.502
			c-0.51,1.936-0.764,3.662-0.764,5.189c0,0.92,0.255,1.859,0.764,2.822c0.506,0.986,1.577,1.461,3.212,1.461
			c1.834,0,3.511-0.508,5.039-1.527c1.527-1.019,2.905-2.234,4.125-3.662c1.224-1.428,2.291-2.922,3.212-4.516
			c0.913-1.584,1.677-2.922,2.291-4.051l1.679,0.764c-0.508,1.029-1.222,2.367-2.135,4.051c-0.921,1.693-2.117,3.33-3.594,4.972
			c-1.478,1.636-3.287,3.03-5.42,4.202c-2.142,1.162-4.69,1.755-7.645,1.755c-3.262,0-6.01-0.718-8.251-2.13
			c-2.241-1.428-3.362-3.775-3.362-7.039c0-1.318,0.1-2.59,0.307-3.818c0.199-1.226,0.71-2.855,1.527-4.889l12.833-36.516
			c0.813-2.457,1.229-4.482,1.229-6.121c0-1.738-0.415-3.109-1.229-4.129c-0.813-1.006-2.391-1.527-4.731-1.527
			c-2.142,0-4.565,0.863-7.263,2.59c-2.698,1.75-5.396,4.084-8.093,7.039c-2.706,2.955-5.279,6.398-7.72,10.316
			c-2.449,3.918-4.482,8.072-6.115,12.451l-11.458,31.941h-10.7l17.88-49.363c1.428-4.283,2.142-7.238,2.142-8.865
			c0-1.826-0.357-3.297-1.071-4.426c-0.714-1.119-1.984-1.684-3.818-1.684s-4.107,0.688-6.804,2.059
			c-2.7,1.385-5.473,3.42-8.328,6.109c-2.854,2.713-5.629,6.074-8.326,10.094c-2.702,4.018-5.023,8.732-6.956,14.135l-11.458,31.941
			h-10.548l22.006-63.418H1725.51L1725.51,814.656z"/>
		<path fill="#EE8384" d="M1634.344,734.082c-0.625,2.291-0.936,4.35-0.936,6.176c0,2.49,1.198,3.742,3.592,3.742
			c1.912,0,3.636-0.555,5.169-1.66c1.527-1.096,2.849-2.348,3.945-3.742c1.102-1.371,2.015-2.766,2.729-4.155
			c0.724-1.39,1.222-2.362,1.511-2.95l1.87,1.02c-0.481,1.039-1.206,2.391-2.158,4.018c-0.957,1.627-2.202,3.188-3.735,4.658
			c-1.527,1.489-3.302,2.779-5.312,3.885c-2.009,1.096-4.36,1.65-7.033,1.65c-6.319,0-9.479-2.879-9.479-8.623
			c0-0.664,0.143-1.836,0.432-3.52c0.286-1.67,0.666-3.173,1.146-4.516h-0.282c-1.345,1.627-2.872,3.42-4.599,5.379
			c-1.72,1.959-3.659,3.785-5.813,5.469c-2.155,1.67-4.519,3.055-7.109,4.16c-2.583,1.096-5.456,1.65-8.616,1.65
			c-2.009,0-3.945-0.365-5.811-1.086c-1.87-0.707-3.52-1.803-4.958-3.297c-1.434-1.484-2.563-3.377-3.37-5.668
			c-0.82-2.301-1.224-5.023-1.224-8.178c0-3.842,0.769-7.67,2.296-11.488c1.534-3.842,3.52-7.495,5.96-10.99
			c2.44-3.486,5.263-6.73,8.473-9.695c3.204-2.965,6.458-5.545,9.762-7.76c3.304-2.191,6.558-3.918,9.762-5.156
			c3.211-1.252,6.056-1.883,8.55-1.883c2.867,0,5.312,0.82,7.321,2.447c2.009,1.629,3.015,3.785,3.015,6.475h0.289l18.66-52.561
			h-12.634l0.575-2.016h22.833l-32.595,91.033C1635.706,729.391,1634.965,731.785,1634.344,734.082z M1637.648,695.666
			c0.332-1.295,0.498-2.4,0.498-3.363c0-0.863-0.116-1.793-0.359-2.812c-0.239-0.996-0.67-1.926-1.295-2.789
			c-0.621-0.863-1.459-1.604-2.507-2.225c-1.052-0.631-2.44-0.939-4.167-0.939c-3.159,0-6.242,0.896-9.264,2.656
			c-3.011,1.77-5.833,4.094-8.467,6.973c-2.638,2.865-5.053,6.143-7.255,9.828c-2.198,3.686-4.09,7.414-5.667,11.199
			s-2.799,7.438-3.663,10.99c-0.863,3.543-1.295,6.641-1.295,9.33c0,3.055,0.598,5.545,1.793,7.471
			c1.195,1.916,3.188,2.879,5.96,2.879c2.778,0,5.605-0.863,8.477-2.59s5.501-3.785,7.892-6.176s4.451-4.781,6.176-7.185
			c1.727-2.401,2.822-4.261,3.304-5.599l7.614-21.107C1636.569,699.143,1637.306,696.961,1637.648,695.666z"/>
		<path fill="#FFFFFF" d="M1644.04,759.117c-0.292,1.029-0.581,2.068-0.863,3.121c-0.292,1.062-0.415,2.059-0.375,3.012
			c0.043,0.807,0.309,1.481,0.807,2.035c0.498,0.555,1.213,0.797,2.158,0.754c1.076-0.057,2.115-0.465,3.127-1.252
			c1.006-0.797,1.926-1.693,2.756-2.699c0.83-1.02,1.527-2.049,2.085-3.088c0.554-1.029,0.956-1.859,1.202-2.48l1.229,0.455
			c-0.239,0.541-0.621,1.395-1.146,2.523c-0.521,1.139-1.262,2.291-2.214,3.43c-0.963,1.162-2.158,2.182-3.603,3.055
			c-1.444,0.887-3.171,1.361-5.195,1.451c-2.22,0.109-4.002-0.266-5.357-1.119c-1.356-0.84-2.082-2.334-2.181-4.492
			c-0.05-1.152,0.089-2.417,0.432-3.818c0.338-1.395,0.687-2.68,1.036-3.842l19.606-64.016l-8.981,0.422l0.342-1.428l16.043-0.73
			L1644.04,759.117z"/>
		<path fill="#FFFFFF" d="M1741.838,761.133c0.373-0.996,0.738-2.02,1.112-3.055c0.365-1.029,0.564-2.016,0.598-2.955
			c0.024-0.82-0.192-1.518-0.64-2.092c-0.456-0.598-1.153-0.896-2.092-0.93c-1.079-0.033-2.149,0.299-3.221,1.006
			c-1.062,0.697-2.049,1.527-2.955,2.48c-0.91,0.939-1.684,1.926-2.324,2.898c-0.636,0.996-1.096,1.793-1.385,2.391l-1.195-0.541
			c0.286-0.531,0.73-1.352,1.338-2.437c0.611-1.083,1.434-2.179,2.48-3.265c1.046-1.072,2.324-1.992,3.829-2.756
			c1.508-0.764,3.268-1.101,5.293-1.039c2.217,0.076,3.968,0.588,5.255,1.537c1.286,0.953,1.893,2.506,1.822,4.648
			c-0.038,1.152-0.278,2.414-0.726,3.775c-0.448,1.371-0.896,2.623-1.337,3.752l-24.541,62.289l8.985,0.275l-0.448,1.395
			l-16.054-0.508L1741.838,761.133z"/>
		<path fill="#FFFFFF" d="M1754.482,732.279c0.388-0.986,0.778-1.992,1.162-3.021c0.388-1.029,0.608-2.016,0.654-2.955
			c0.042-0.797-0.158-1.518-0.606-2.092c-0.44-0.598-1.129-0.93-2.075-0.963c-1.071-0.066-2.15,0.242-3.229,0.939
			c-1.079,0.688-2.084,1.494-3.005,2.424c-0.922,0.93-1.71,1.893-2.367,2.879c-0.655,0.973-1.136,1.76-1.435,2.357l-1.188-0.564
			c0.299-0.531,0.764-1.328,1.387-2.414c0.631-1.072,1.468-2.158,2.54-3.221c1.062-1.062,2.357-1.959,3.875-2.689
			c1.52-0.73,3.288-1.039,5.305-0.939c2.217,0.109,3.959,0.641,5.229,1.627c1.266,0.973,1.843,2.533,1.735,4.682
			c-0.05,1.139-0.315,2.4-0.789,3.755c-0.473,1.358-0.938,2.597-1.403,3.726l-25.634,61.848l8.981,0.441l-0.475,1.395l-16.044-0.797
			L1754.482,732.279z"/>
		<path fill="#FFFFFF" d="M1666.768,759.605c0.332-1.02,0.664-2.049,0.996-3.088c0.332-1.055,0.487-2.049,0.481-2.988
			c0-0.82-0.243-1.494-0.721-2.082c-0.475-0.564-1.183-0.84-2.129-0.834c-1.073,0.004-2.131,0.393-3.171,1.133
			c-1.035,0.754-1.992,1.617-2.861,2.59c-0.874,0.986-1.604,1.982-2.208,2.988c-0.598,1.024-1.029,1.826-1.295,2.447l-1.212-0.498
			c0.266-0.555,0.681-1.361,1.245-2.49c0.564-1.119,1.346-2.225,2.347-3.344c1.007-1.129,2.252-2.092,3.719-2.898
			c1.478-0.826,3.231-1.242,5.246-1.252c2.225-0.01,3.995,0.427,5.312,1.328c1.322,0.896,1.986,2.424,2.003,4.582
			c0.006,1.152-0.183,2.414-0.581,3.785c-0.397,1.395-0.791,2.656-1.189,3.809l-22.12,63.186l8.99-0.066l-0.39,1.428l-16.064,0.1
			L1666.768,759.605z"/>
		<path fill="#FFFFFF" d="M1744.876,646.152c0.382-0.988,0.771-1.994,1.153-3.023s0.598-2.016,0.64-2.955
			c0.041-0.82-0.166-1.518-0.607-2.115c-0.448-0.574-1.136-0.906-2.083-0.939c-1.072-0.057-2.151,0.266-3.23,0.963
			c-1.079,0.674-2.075,1.494-2.996,2.434c-0.913,0.93-1.703,1.893-2.357,2.879c-0.647,0.973-1.122,1.76-1.42,2.357l-1.189-0.564
			c0.293-0.521,0.753-1.328,1.372-2.414c0.626-1.072,1.47-2.158,2.533-3.221c1.053-1.062,2.348-1.959,3.865-2.699
			c1.514-0.73,3.281-1.062,5.302-0.963c2.222,0.1,3.965,0.631,5.234,1.604c1.271,0.963,1.86,2.523,1.757,4.682
			c-0.054,1.152-0.312,2.391-0.781,3.752c-0.469,1.361-0.931,2.613-1.388,3.742l-25.42,61.924l8.981,0.408l-0.472,1.395
			l-16.046-0.74L1744.876,646.152z"/>
		<path fill="#FFFFFF" d="M1651.6,867.914c-0.338,0.996-0.67,2.025-1.013,3.064c-0.338,1.053-0.504,2.049-0.504,2.988
			c0,0.797,0.239,1.494,0.706,2.059c0.473,0.588,1.177,0.863,2.123,0.863c1.079,0,2.138-0.365,3.181-1.105
			c1.046-0.73,2.009-1.594,2.878-2.58c0.88-0.973,1.621-1.969,2.225-2.976c0.608-1.009,1.046-1.815,1.312-2.437l1.212,0.521
			c-0.266,0.531-0.687,1.361-1.262,2.467c-0.57,1.119-1.361,2.225-2.374,3.344c-1.01,1.105-2.258,2.068-3.735,2.865
			c-1.484,0.82-3.237,1.219-5.252,1.219c-2.225,0-3.995-0.455-5.306-1.361c-1.312-0.92-1.965-2.447-1.965-4.605
			c0-1.139,0.199-2.4,0.604-3.785c0.398-1.371,0.807-2.633,1.212-3.785l22.528-63.029h-8.987l0.398-1.428h16.06L1651.6,867.914z"/>
		<path fill="#FFFFFF" d="M1701.122,781.553c-0.377,0.996-0.75,2.015-1.125,3.055c-0.376,1.029-0.576,2.002-0.609,2.955
			c-0.033,0.805,0.173,1.504,0.631,2.092c0.448,0.598,1.146,0.896,2.083,0.93c1.079,0.043,2.151-0.289,3.221-0.991
			c1.072-0.702,2.061-1.522,2.972-2.462c0.913-0.953,1.686-1.916,2.333-2.912c0.638-0.973,1.103-1.77,1.399-2.367l1.191,0.541
			c-0.29,0.531-0.74,1.352-1.354,2.432c-0.607,1.088-1.442,2.174-2.49,3.246c-1.051,1.086-2.332,1.992-3.842,2.746
			c-1.511,0.74-3.271,1.096-5.289,1.02c-2.225-0.08-3.975-0.611-5.253-1.551c-1.278-0.963-1.876-2.514-1.802-4.672
			c0.042-1.139,0.292-2.4,0.747-3.762c0.448-1.361,0.902-2.613,1.345-3.742l24.809-62.189l-8.987-0.309l0.458-1.418l16.054,0.593
			L1701.122,781.553z"/>
		<path fill="#FFFFFF" d="M1713.583,776.938c0.349-1.02,0.688-2.049,1.037-3.088c0.341-1.029,0.515-2.025,0.524-2.979
			c0.002-0.807-0.225-1.494-0.697-2.068c-0.465-0.588-1.171-0.863-2.118-0.876c-1.07-0.011-2.132,0.354-3.188,1.085
			c-1.046,0.73-2.009,1.594-2.896,2.557c-0.88,0.976-1.627,1.959-2.241,2.979c-0.614,0.996-1.055,1.803-1.328,2.4l-1.212-0.508
			c0.273-0.531,0.705-1.361,1.278-2.457c0.581-1.119,1.382-2.225,2.398-3.32c1.022-1.119,2.274-2.059,3.761-2.855
			c1.485-0.797,3.237-1.195,5.259-1.186c2.219,0.023,3.988,0.488,5.29,1.395c1.312,0.93,1.959,2.457,1.942,4.615
			c-0.007,1.152-0.216,2.414-0.631,3.785c-0.415,1.385-0.83,2.646-1.236,3.785l-22.953,62.887l8.991,0.057l-0.415,1.404l-16.063-0.1
			L1713.583,776.938z"/>
		<path fill="#FFFFFF" d="M1704.824,733.375c-0.382,0.996-0.757,2.002-1.136,3.031c-0.382,1.029-0.59,2.016-0.626,2.955
			c-0.035,0.81,0.172,1.518,0.617,2.092c0.448,0.598,1.146,0.92,2.089,0.953c1.075,0.043,2.154-0.289,3.224-0.986
			c1.072-0.697,2.068-1.504,2.981-2.457c0.913-0.931,1.697-1.895,2.341-2.889c0.647-0.973,1.12-1.77,1.411-2.359l1.195,0.557
			c-0.292,0.531-0.747,1.328-1.361,2.424c-0.624,1.072-1.454,2.158-2.51,3.23c-1.055,1.062-2.337,1.982-3.855,2.723
			c-1.513,0.754-3.277,1.086-5.298,0.996c-2.215-0.1-3.968-0.607-5.242-1.57c-1.273-0.963-1.871-2.523-1.78-4.682
			c0.05-1.152,0.299-2.391,0.761-3.752c0.46-1.361,0.916-2.613,1.364-3.742l25.085-62.066l-8.989-0.365l0.465-1.395l16.044,0.641
			L1704.824,733.375z"/>
		<path fill="#FFFFFF" d="M1709.157,743.535l12.119,10.535l-0.622,1.328l-6.79-5.887l-24.364,62.355
			c-0.448,1.129-0.969,2.334-1.566,3.652c-0.608,1.305-1.278,2.391-2.033,3.254c-1.414,1.627-2.914,2.357-4.502,2.168
			c-1.583-0.166-3.221-0.988-4.897-2.434c-1.527-1.328-2.579-2.789-3.171-4.373c-0.581-1.57-0.896-3.121-0.93-4.625
			c-0.033-1.494,0.1-2.855,0.398-4.074c0.299-1.205,0.521-2.102,0.675-2.695l1.245,0.404c-0.199,0.654-0.398,1.551-0.603,2.713
			c-0.205,1.146-0.294,2.391-0.277,3.695c0.017,1.318,0.183,2.59,0.481,3.842c0.299,1.238,0.863,2.211,1.672,2.922
			c0.708,0.607,1.433,0.863,2.163,0.74c0.73-0.109,1.361-0.498,1.893-1.096c0.62-0.707,1.146-1.57,1.577-2.59
			c0.432-0.997,0.848-1.992,1.262-2.988L1709.157,743.535z"/>
		<path fill="#FFFFFF" d="M1662.061,772.887c0.33-1.02,0.662-2.049,0.994-3.088c0.332-1.053,0.492-2.049,0.481-2.988
			c0-0.82-0.238-1.494-0.719-2.059c-0.477-0.588-1.18-0.863-2.126-0.854c-1.077,0-2.136,0.389-3.171,1.129
			c-1.04,0.754-1.992,1.617-2.866,2.59c-0.87,0.986-1.6,1.982-2.205,3.003c-0.601,1.015-1.032,1.819-1.298,2.433l-1.212-0.498
			c0.266-0.546,0.681-1.361,1.245-2.482c0.564-1.127,1.348-2.232,2.351-3.352c1.002-1.117,2.248-2.092,3.719-2.898
			c1.478-0.82,3.227-1.229,5.247-1.252c2.225-0.01,3.99,0.432,5.312,1.328c1.317,0.896,1.983,2.424,1.998,4.582
			c0.011,1.152-0.183,2.414-0.581,3.785c-0.396,1.395-0.786,2.656-1.185,3.809l-22.124,63.186l8.992-0.059l-0.392,1.42l-16.06,0.1
			L1662.061,772.887z"/>
		<path fill="#FFFFFF" d="M1733.711,727.109c-0.389,0.996-0.78,2.016-1.169,3.021c-0.391,1.029-0.607,2.016-0.657,2.955
			c-0.041,0.82,0.159,1.518,0.598,2.115c0.441,0.598,1.136,0.906,2.075,0.963c1.079,0.043,2.153-0.262,3.237-0.953
			c1.079-0.674,2.084-1.494,3.005-2.424c0.926-0.93,1.719-1.869,2.374-2.855c0.657-0.973,1.138-1.76,1.437-2.357l1.186,0.564
			c-0.299,0.531-0.764,1.328-1.385,2.414c-0.631,1.072-1.478,2.158-2.549,3.197c-1.062,1.062-2.357,1.959-3.875,2.689
			c-1.527,0.73-3.296,1.053-5.312,0.93c-2.217-0.107-3.96-0.641-5.222-1.627c-1.269-0.973-1.843-2.533-1.734-4.691
			c0.057-1.152,0.326-2.391,0.804-3.752c0.474-1.358,0.939-2.59,1.404-3.719l25.757-61.791l-8.982-0.465l0.474-1.395l16.045,0.83
			L1733.711,727.109z"/>
		<path fill="#FFFFFF" d="M1652.363,820.799l-12.471-10.127l0.578-1.352l6.979,5.668l22.246-63.143
			c0.409-1.139,0.891-2.391,1.444-3.71c0.559-1.324,1.195-2.433,1.92-3.329c1.361-1.668,2.828-2.434,4.422-2.324
			c1.594,0.126,3.254,0.887,4.98,2.291c1.571,1.262,2.673,2.689,3.314,4.25c0.637,1.561,1.002,3.088,1.085,4.582
			c0.083,1.518,0,2.879-0.255,4.093c-0.26,1.22-0.448,2.14-0.581,2.714l-1.262-0.365c0.172-0.641,0.349-1.537,0.511-2.699
			c0.17-1.186,0.22-2.414,0.153-3.719c-0.066-1.318-0.266-2.59-0.614-3.818c-0.343-1.229-0.93-2.191-1.771-2.879
			c-0.73-0.598-1.461-0.807-2.191-0.664c-0.72,0.156-1.345,0.531-1.849,1.162c-0.598,0.73-1.09,1.617-1.488,2.623
			c-0.398,1.029-0.78,2.049-1.157,3.045L1652.363,820.799z"/>
		<path fill="#FFFFFF" d="M1711.332,737.891l12.119,10.535l-0.622,1.328l-6.783-5.887l-24.36,62.332
			c-0.448,1.142-0.974,2.357-1.577,3.676c-0.598,1.295-1.275,2.391-2.025,3.254c-1.411,1.627-2.916,2.334-4.499,2.168
			c-1.594-0.176-3.221-0.996-4.897-2.457c-1.527-1.328-2.584-2.766-3.171-4.359c-0.592-1.584-0.896-3.121-0.93-4.615
			c-0.033-1.518,0.1-2.855,0.388-4.084c0.299-1.219,0.525-2.115,0.675-2.689l1.245,0.408c-0.193,0.631-0.393,1.527-0.598,2.689
			c-0.21,1.162-0.299,2.404-0.276,3.709c0.017,1.305,0.177,2.59,0.481,3.828c0.299,1.252,0.857,2.225,1.671,2.945
			c0.714,0.607,1.434,0.863,2.164,0.73c0.73-0.123,1.361-0.488,1.893-1.096c0.614-0.721,1.146-1.561,1.577-2.58
			c0.428-1.006,0.847-2.002,1.256-2.988L1711.332,737.891z"/>
		<path fill="#FFFFFF" d="M1640.394,770.34c-0.289,1.02-0.581,2.059-0.863,3.121c-0.289,1.062-0.415,2.059-0.372,3.012
			c0.04,0.797,0.305,1.471,0.803,2.025c0.498,0.541,1.214,0.807,2.158,0.764c1.079-0.057,2.119-0.465,3.131-1.262
			c1.002-0.787,1.926-1.684,2.756-2.713c0.83-1.006,1.527-2.035,2.082-3.064c0.558-1.053,0.959-1.859,1.206-2.49l1.229,0.441
			c-0.243,0.564-0.625,1.395-1.146,2.547c-0.525,1.129-1.262,2.268-2.218,3.43c-0.961,1.162-2.158,2.182-3.603,3.055
			c-1.444,0.863-3.171,1.356-5.193,1.451c-2.217,0.1-4.004-0.266-5.355-1.119c-1.358-0.84-2.085-2.357-2.185-4.492
			c-0.05-1.152,0.093-2.424,0.432-3.818c0.342-1.395,0.691-2.68,1.04-3.842l19.606-64.016l-8.981,0.422l0.338-1.428l16.048-0.754
			L1640.394,770.34z"/>
		<rect x="1824.871" y="864.053" fill="#EE8384" width="956.45" height="1.5"/>
		<g>
			<defs>
				<polygon id="SVGID_1_" points="2804.042,879.645 2778.736,871.5 2782.925,858.484 2808.239,866.629 				"/>
			</defs>
			<clipPath id="SVGID_2_">
				<use xlink:href="#SVGID_1_"  overflow="visible"/>
			</clipPath>
			<path clip-path="url(#SVGID_2_)" fill="#EF8484" d="M2806.593,868.521c-0.326-1.062-0.792-1.902-1.428-2.533
				c-0.525-0.521-1.024-0.797-1.521-0.863c-0.498-0.057-1.102-0.057-1.826,0.033c-0.73,0.076-1.201,0.107-1.459,0.076
				c-0.699-0.1-1.203-0.441-1.499-1.064c-0.169-0.373-0.368-0.572-0.567-0.605c-0.166-0.023-0.293,0.066-0.365,0.242
				c0.105,0.432,0.266,0.754,0.473,0.953c0.191,0.166,0.291,0.275,0.264,0.332c0,0,0,0.033-0.006,0.066
				c-0.027,0.033-0.033,0.066-0.033,0.109c-0.033,0.256,0.066,0.465,0.305,0.631c0.244,0.166,0.498,0.322,0.764,0.488
				c-0.605,0.664-0.996,1.438-1.129,2.334c-0.154,1.029,0,1.926,0.465,2.723c0.492,0.787,1.129,1.229,1.953,1.328
				c0.371,0.057,0.762-0.033,1.101-0.242c0.36-0.224,0.56-0.521,0.599-0.854c0.035-0.299,0.027-0.541-0.066-0.74
				c-0.072-0.199-0.205-0.299-0.398-0.332c-0.498-0.057-0.77,0.209-0.863,0.797c-0.033,0.199,0.094,0.402,0.365,0.607
				c-0.139,0.166-0.266,0.232-0.338,0.232l-0.033-0.01c-0.033,0-0.1,0-0.193,0c-0.072,0-0.139,0-0.199,0
				c-0.664-0.09-1.162-0.488-1.527-1.186s-0.468-1.471-0.338-2.334c0.103-0.695,0.504-1.409,1.234-2.148
				c0.564-0.598,1.09-0.87,1.494-0.807h0.066c0.094,0.01,0.133,0.043,0.16,0.109c-0.227,0.156-0.359,0.422-0.426,0.764
				c-0.033,0.266-0.033,0.441-0.006,0.531c0.039,0.123,0.154,0.199,0.338,0.223c0.199,0.033,0.531-0.033,0.99-0.189
				c0.438-0.15,0.68-0.232,0.73-0.219c0.133,0.01,0.271,0.076,0.465,0.186c0.232,0.156,0.404,0.322,0.537,0.521
				c-0.1,0.104-0.205,0.166-0.365,0.199c-0.105,0.01-0.238,0.033-0.366,0.051c-0.099,0.025-0.198,0.092-0.304,0.2
				c-0.1,0.114-0.166,0.181-0.166,0.224c-0.033,0.199,0.006,0.355,0.138,0.465c0.095,0.09,0.294,0.189,0.575,0.289
				c0.588,0.199,0.896,0.309,0.914,0.309c0.172,0.023,0.398,0.166,0.631,0.455c0.232,0.275,0.332,0.508,0.299,0.73l-0.012,0.033
				c-0.016,0.076-0.049,0.133-0.088,0.166c-0.299-0.166-0.46-0.256-0.492-0.256c-0.266-0.033-0.432,0.175-0.498,0.631
				c-0.006,0.123,0.061,0.365,0.199,0.73c0.133,0.365,0.194,0.697,0.16,0.996c-0.1,0.631-0.531,1.21-1.295,1.693
				c-0.896,0.598-1.992,0.82-3.254,0.664c-1.693-0.209-3.021-0.906-4.01-2.092c0.23,0.033,0.49,0.1,0.764,0.223
				c0.297,0.109,0.496,0.176,0.59,0.199c0.033,0,0.232-0.023,0.57-0.057c0.127-0.066,0.193-0.133,0.193-0.199
				c0.006-0.043-0.035-0.109-0.16-0.199c-0.1-0.076-0.205-0.133-0.332-0.143c-0.066,0-0.166-0.029-0.305-0.066
				c-0.16-0.042-0.266-0.066-0.359-0.09c-0.139-0.01-0.398-0.199-0.77-0.552c-0.432-0.415-0.792-0.853-1.074-1.308
				c-0.221-0.375-0.348-0.631-0.32-0.764c0-0.01,0.066-0.076,0.166-0.203c0.1-0.129,0.166-0.238,0.172-0.371
				c0.061-0.332,0.027-0.555-0.1-0.627c-0.438-0.27-0.73-0.602-0.863-1c-0.067-0.199-0.1-0.521-0.072-0.93
				c0.006-0.576-0.133-1.096-0.432-1.561c-0.326-0.488-0.83-0.963-1.527-1.461c-0.764-0.525-1.461-0.92-2.139-1.186
				c-0.744-0.299-1.58-0.498-2.525-0.607c-2.109-0.281-4.016,0.01-5.689,0.873c-0.604,0.299-0.963,0.498-1.096,0.598
				c-0.172,0.156-0.299,0.355-0.332,0.598c-0.006,0.1-0.031,0.199-0.033,0.289c0,0.076,0,0.118,0,0.109
				c-0.072,0.531-0.033,0.797,0.166,0.83c0.127,0.023,0.299-0.143,0.531-0.498c0.084-0.133,0.232-0.242,0.492-0.351
				c0.305-0.147,0.631-0.28,0.936-0.413c0.299-0.133,0.73-0.232,1.322-0.283c0.504-0.049,0.936-0.059,1.268-0.016
				c0.498,0.066,0.924,0.189,1.256,0.389c0.205,0.1,0.432,0.266,0.664,0.475c0.199,0.174,0.332,0.266,0.432,0.289
				c0.066,0,0.133-0.033,0.232-0.123c0.072-0.076,0.166-0.133,0.266-0.109c0.066,0.001,0.172,0.1,0.338,0.275
				c0.176,0.189,0.299,0.374,0.393,0.588c0.039,0.266,0.072,0.482,0.072,0.65c0.027,0.422,0.082,0.777,0.193,1.02
				c0.1,0.256,0.199,0.389,0.305,0.398c0.193,0.023,0.359-0.133,0.498-0.465c0.16-0.309,0.291-0.475,0.365-0.465
				c0.1,0.023,0.166,0.156,0.232,0.408c0.061,0.256,0.066,0.512,0.033,0.744c-0.006,0.076-0.1,0.266-0.232,0.541
				c-0.139,0.266-0.221,0.465-0.238,0.598v0.023c-0.033,0.223-0.027,0.432,0.033,0.631c0.066,0.199,0.139,0.299,0.238,0.309
				c0.095,0.023,0.227-0.033,0.365-0.133c0.16-0.1,0.26-0.143,0.293-0.143c0,0,0.006,0.005,0.033,0.01l0.006,0.023
				c0.027,0.133,0.027,0.232,0.027,0.275c-0.061,0.299-0.268,0.73-0.691,1.295c-0.432,0.621-0.836,1.053-1.262,1.295
				c-0.831,0.521-1.561,0.73-2.191,0.654c-0.736-0.1-1.361-0.389-1.826-0.863c-0.385-0.398-0.564-0.73-0.506-0.986l0.002-0.055
				c0.006-0.145,0.1-0.361,0.205-0.652c0.127-0.289,0.193-0.498,0.199-0.598c0.027-0.166,0-0.299-0.072-0.407
				c-0.066-0.114-0.166-0.181-0.299-0.19c-0.26-0.033-0.564,0.143-0.924,0.531c-0.039-0.057-0.072-0.1-0.066-0.166
				c0.033-0.256,0.26-0.49,0.631-0.721c0.398-0.232,0.598-0.441,0.631-0.664c0.027-0.133,0-0.268-0.072-0.398
				c-0.094-0.139-0.193-0.209-0.326-0.232h-0.033c0.166-0.266,0.465-0.475,0.896-0.641c0.424-0.156,0.791-0.199,1.123-0.166
				c0.238,0.033,0.504,0.143,0.764,0.342c0.25,0.199,0.371,0.422,0.365,0.654v0.01c-0.027,0.096-0.066,0.133-0.16,0.123
				c-0.039,0-0.1-0.023-0.166-0.065c-0.066-0.034-0.105-0.058-0.139-0.058c-0.227-0.033-0.426,0.033-0.628,0.199
				c-0.196,0.166-0.302,0.355-0.335,0.588c-0.059,0.232,0.006,0.457,0.172,0.667c0.166,0.206,0.393,0.339,0.631,0.372
				c0.359,0.033,0.658-0.066,0.896-0.309c0.266-0.256,0.426-0.621,0.498-1.096c0.066-0.488-0.072-0.93-0.438-1.361
				c-0.365-0.422-0.83-0.664-1.389-0.73c-0.83-0.1-1.6,0.143-2.324,0.773c-0.717,0.631-1.135,1.385-1.268,2.248
				c-0.166,1.072,0.1,2.035,0.77,2.889c0.691,0.863,1.561,1.338,2.622,1.471l0.526,0.066c0.398,0.057,0.83,0.023,1.301-0.1
				c0.564-0.155,1.09-0.398,1.527-0.73c0.459-0.309,0.891-0.83,1.322-1.504c0.398-0.675,0.632-1.229,0.697-1.684
				c0.105-0.74,0.006-1.604-0.326-2.59c-0.332-0.996-0.764-1.703-1.3-2.191c-1.157-1.014-2.458-1.627-3.919-1.803
				c-0.631-0.066-1.223-0.1-1.788-0.066c-0.397,0.01-0.769,0.058-1.134,0.133l-0.459,0.076l-0.1-0.01
				c-0.033,0-0.039-0.023-0.039-0.033c0.1-0.199,0.604-0.389,1.5-0.531c1.057-0.166,2.191-0.189,3.414-0.023
				c0.631,0.066,1.301,0.299,2.025,0.664c0.73,0.365,1.201,0.73,1.461,1.096c0.072,0.123,0.238,0.455,0.504,0.996
				c0.16,0.332,0.326,0.498,0.525,0.521c0.105,0.01,0.232-0.057,0.338-0.199c0.199-0.289,0.299-0.428,0.326-0.441
				c0.332,0.551,0.471,0.973,0.432,1.238c-0.014,0.1-0.061,0.232-0.1,0.401c-0.066,0.173-0.1,0.296-0.111,0.339
				c-0.021,0.223-0.021,0.398,0.045,0.564c0.039,0.166,0.107,0.263,0.205,0.266c0.094,0.023,0.193-0.033,0.277-0.109
				c0.148-0.133,0.248-0.223,0.348-0.256c0.033,0.123,0.105,0.232,0.232,0.355c0.066,0.043,0.072,0.166,0.066,0.309l-0.027,0.111
				c-0.006,0.078-0.039,0.188-0.133,0.32c-0.066,0.133-0.1,0.223-0.104,0.256c-0.062,0.342,0.032,0.598,0.206,0.73
				c0.158,0.1,0.296,0.199,0.43,0.275c0.1,0.355,0.166,0.654,0.215,0.905c0.078,0.313,0.15,0.622,0.244,0.944
				c0.072,0.432,0.072,0.863,0.02,1.295c-0.047,0.266-0.113,0.465-0.219,0.634c-0.127,0.173-0.166,0.263-0.193,0.272
				c-0.006,0.156,0.061,0.232,0.193,0.256c0.105,0.01,0.266-0.09,0.465-0.299c0.199-0.223,0.305-0.428,0.338-0.611v-0.086
				c0.033-0.133,0.061-0.256,0.094-0.389c0.537,0.764,1.195,1.343,1.932,1.727c0.697,0.355,1.594,0.598,2.689,0.73
				c1.156,0.156,2.191-0.043,3.133-0.572c0.746-0.424,1.35-0.965,1.842-1.652c0.471-0.674,0.77-1.428,0.896-2.234
				C2806.858,870.271,2806.825,869.342,2806.593,868.521"/>
		</g>
	</g>
</g>
</svg>
