<svg xmlns="http://www.w3.org/2000/svg" xmlns:xlink="http://www.w3.org/1999/xlink" version="1.1" id="Layer_1" x="0" y="0" width="1440" height="244.5" viewBox="1484 635.25 1440 244.5" enable-background="new 1484 635.25 1440 244.499" xml:space="preserve">
  <rect x="1484" y="635.25" fill="#323132" width="1440" height="244.66"/>
  <path fill="#EE8384" d="M1725.51 814.66l0.61-2.15h24.14l-5.8 17.43h0.31c1.22-1.74 2.77-3.66 4.66-5.81 1.88-2.13 4-4.13 6.34-5.95 2.34-1.85 4.84-3.39 7.49-4.67 2.65-1.27 5.3-1.9 7.95-1.9 3.88 0 6.85 1.14 8.94 3.43 2.09 2.29 3.14 5.12 3.14 8.49 0 1.83-0.26 3.76-0.76 5.81h0.3c1.02-1.53 2.4-3.32 4.13-5.35 1.73-2.05 3.69-3.98 5.88-5.81 2.19-1.85 4.56-3.39 7.11-4.67 2.55-1.27 5.1-1.9 7.65-1.9 4.28 0 7.66 1.14 10.16 3.43 2.49 2.29 3.74 5.12 3.74 8.49 0 1.73-0.28 3.43-0.84 5.11 -0.56 1.69-1.25 3.7-2.07 6.04l-9.93 28.27c-0.61 1.73-1.18 3.58-1.68 5.5 -0.51 1.94-0.76 3.66-0.76 5.19 0 0.92 0.26 1.86 0.76 2.82 0.51 0.99 1.58 1.46 3.21 1.46 1.83 0 3.51-0.51 5.04-1.53 1.53-1.02 2.91-2.23 4.13-3.66 1.22-1.43 2.29-2.92 3.21-4.52 0.91-1.58 1.68-2.92 2.29-4.05l1.68 0.76c-0.51 1.03-1.22 2.37-2.13 4.05 -0.92 1.69-2.12 3.33-3.59 4.97 -1.48 1.64-3.29 3.03-5.42 4.2 -2.14 1.16-4.69 1.76-7.64 1.76 -3.26 0-6.01-0.72-8.25-2.13 -2.24-1.43-3.36-3.77-3.36-7.04 0-1.32 0.1-2.59 0.31-3.82 0.2-1.23 0.71-2.85 1.53-4.89l12.83-36.52c0.81-2.46 1.23-4.48 1.23-6.12 0-1.74-0.41-3.11-1.23-4.13 -0.81-1.01-2.39-1.53-4.73-1.53 -2.14 0-4.57 0.86-7.26 2.59 -2.7 1.75-5.4 4.08-8.09 7.04 -2.71 2.96-5.28 6.4-7.72 10.32 -2.45 3.92-4.48 8.07-6.11 12.45l-11.46 31.94h-10.7l17.88-49.36c1.43-4.28 2.14-7.24 2.14-8.86 0-1.83-0.36-3.3-1.07-4.43 -0.71-1.12-1.98-1.68-3.82-1.68s-4.11 0.69-6.8 2.06c-2.7 1.39-5.47 3.42-8.33 6.11 -2.85 2.71-5.63 6.07-8.33 10.09 -2.7 4.02-5.02 8.73-6.96 14.14l-11.46 31.94h-10.55l22.01-63.42H1725.51L1725.51 814.66z"/>
  <path fill="#EE8384" d="M1634.34 734.08c-0.62 2.29-0.94 4.35-0.94 6.18 0 2.49 1.2 3.74 3.59 3.74 1.91 0 3.64-0.56 5.17-1.66 1.53-1.1 2.85-2.35 3.95-3.74 1.1-1.37 2.02-2.77 2.73-4.15 0.72-1.39 1.22-2.36 1.51-2.95l1.87 1.02c-0.48 1.04-1.21 2.39-2.16 4.02 -0.96 1.63-2.2 3.19-3.73 4.66 -1.53 1.49-3.3 2.78-5.31 3.89 -2.01 1.1-4.36 1.65-7.03 1.65 -6.32 0-9.48-2.88-9.48-8.62 0-0.66 0.14-1.84 0.43-3.52 0.29-1.67 0.67-3.17 1.15-4.52h-0.28c-1.34 1.63-2.87 3.42-4.6 5.38 -1.72 1.96-3.66 3.79-5.81 5.47 -2.15 1.67-4.52 3.06-7.11 4.16 -2.58 1.1-5.46 1.65-8.62 1.65 -2.01 0-3.94-0.36-5.81-1.09 -1.87-0.71-3.52-1.8-4.96-3.3 -1.43-1.48-2.56-3.38-3.37-5.67 -0.82-2.3-1.22-5.02-1.22-8.18 0-3.84 0.77-7.67 2.3-11.49 1.53-3.84 3.52-7.49 5.96-10.99 2.44-3.49 5.26-6.73 8.47-9.69 3.2-2.96 6.46-5.54 9.76-7.76 3.3-2.19 6.56-3.92 9.76-5.16 3.21-1.25 6.06-1.88 8.55-1.88 2.87 0 5.31 0.82 7.32 2.45 2.01 1.63 3.02 3.79 3.02 6.48h0.29l18.66-52.56h-12.63l0.57-2.02h22.83l-32.59 91.03C1635.71 729.39 1634.97 731.79 1634.34 734.08zM1637.65 695.67c0.33-1.29 0.5-2.4 0.5-3.36 0-0.86-0.12-1.79-0.36-2.81 -0.24-1-0.67-1.93-1.29-2.79 -0.62-0.86-1.46-1.6-2.51-2.22 -1.05-0.63-2.44-0.94-4.17-0.94 -3.16 0-6.24 0.9-9.26 2.66 -3.01 1.77-5.83 4.09-8.47 6.97 -2.64 2.87-5.05 6.14-7.25 9.83 -2.2 3.69-4.09 7.41-5.67 11.2s-2.8 7.44-3.66 10.99c-0.86 3.54-1.29 6.64-1.29 9.33 0 3.06 0.6 5.55 1.79 7.47 1.2 1.92 3.19 2.88 5.96 2.88 2.78 0 5.61-0.86 8.48-2.59s5.5-3.78 7.89-6.18 4.45-4.78 6.18-7.18c1.73-2.4 2.82-4.26 3.3-5.6l7.61-21.11C1636.57 699.14 1637.31 696.96 1637.65 695.67z"/>
  <path fill="#FFFFFF" d="M1644.04 759.12c-0.29 1.03-0.58 2.07-0.86 3.12 -0.29 1.06-0.41 2.06-0.37 3.01 0.04 0.81 0.31 1.48 0.81 2.04 0.5 0.56 1.21 0.8 2.16 0.75 1.08-0.06 2.12-0.46 3.13-1.25 1.01-0.8 1.93-1.69 2.76-2.7 0.83-1.02 1.53-2.05 2.09-3.09 0.55-1.03 0.96-1.86 1.2-2.48l1.23 0.46c-0.24 0.54-0.62 1.4-1.15 2.52 -0.52 1.14-1.26 2.29-2.21 3.43 -0.96 1.16-2.16 2.18-3.6 3.06 -1.44 0.89-3.17 1.36-5.19 1.45 -2.22 0.11-4-0.27-5.36-1.12 -1.36-0.84-2.08-2.33-2.18-4.49 -0.05-1.15 0.09-2.42 0.43-3.82 0.34-1.39 0.69-2.68 1.04-3.84l19.61-64.02 -8.98 0.42 0.34-1.43 16.04-0.73L1644.04 759.12z"/>
  <path fill="#FFFFFF" d="M1741.84 761.13c0.37-1 0.74-2.02 1.11-3.05 0.37-1.03 0.56-2.02 0.6-2.95 0.02-0.82-0.19-1.52-0.64-2.09 -0.46-0.6-1.15-0.9-2.09-0.93 -1.08-0.03-2.15 0.3-3.22 1.01 -1.06 0.7-2.05 1.53-2.95 2.48 -0.91 0.94-1.68 1.93-2.32 2.9 -0.64 1-1.1 1.79-1.38 2.39l-1.19-0.54c0.29-0.53 0.73-1.35 1.34-2.44 0.61-1.08 1.43-2.18 2.48-3.26 1.05-1.07 2.32-1.99 3.83-2.76 1.51-0.76 3.27-1.1 5.29-1.04 2.22 0.08 3.97 0.59 5.26 1.54 1.29 0.95 1.89 2.51 1.82 4.65 -0.04 1.15-0.28 2.41-0.73 3.78 -0.45 1.37-0.9 2.62-1.34 3.75l-24.54 62.29 8.99 0.28 -0.45 1.4 -16.05-0.51L1741.84 761.13z"/>
  <path fill="#FFFFFF" d="M1754.48 732.28c0.39-0.99 0.78-1.99 1.16-3.02 0.39-1.03 0.61-2.02 0.65-2.95 0.04-0.8-0.16-1.52-0.61-2.09 -0.44-0.6-1.13-0.93-2.08-0.96 -1.07-0.07-2.15 0.24-3.23 0.94 -1.08 0.69-2.08 1.49-3 2.42 -0.92 0.93-1.71 1.89-2.37 2.88 -0.65 0.97-1.14 1.76-1.43 2.36l-1.19-0.56c0.3-0.53 0.76-1.33 1.39-2.41 0.63-1.07 1.47-2.16 2.54-3.22 1.06-1.06 2.36-1.96 3.88-2.69 1.52-0.73 3.29-1.04 5.31-0.94 2.22 0.11 3.96 0.64 5.23 1.63 1.27 0.97 1.84 2.53 1.74 4.68 -0.05 1.14-0.31 2.4-0.79 3.76 -0.47 1.36-0.94 2.6-1.4 3.73l-25.63 61.85 8.98 0.44 -0.47 1.4 -16.04-0.8L1754.48 732.28z"/>
  <path fill="#FFFFFF" d="M1666.77 759.61c0.33-1.02 0.66-2.05 1-3.09 0.33-1.05 0.49-2.05 0.48-2.99 0-0.82-0.24-1.49-0.72-2.08 -0.47-0.56-1.18-0.84-2.13-0.83 -1.07 0-2.13 0.39-3.17 1.13 -1.03 0.75-1.99 1.62-2.86 2.59 -0.87 0.99-1.6 1.98-2.21 2.99 -0.6 1.02-1.03 1.83-1.29 2.45l-1.21-0.5c0.27-0.56 0.68-1.36 1.25-2.49 0.56-1.12 1.35-2.22 2.35-3.34 1.01-1.13 2.25-2.09 3.72-2.9 1.48-0.83 3.23-1.24 5.25-1.25 2.23-0.01 4 0.43 5.31 1.33 1.32 0.9 1.99 2.42 2 4.58 0.01 1.15-0.18 2.41-0.58 3.79 -0.4 1.4-0.79 2.66-1.19 3.81l-22.12 63.19 8.99-0.07 -0.39 1.43 -16.06 0.1L1666.77 759.61z"/>
  <path fill="#FFFFFF" d="M1744.88 646.15c0.38-0.99 0.77-1.99 1.15-3.02s0.6-2.02 0.64-2.95c0.04-0.82-0.17-1.52-0.61-2.12 -0.45-0.57-1.14-0.91-2.08-0.94 -1.07-0.06-2.15 0.27-3.23 0.96 -1.08 0.67-2.08 1.49-3 2.43 -0.91 0.93-1.7 1.89-2.36 2.88 -0.65 0.97-1.12 1.76-1.42 2.36l-1.19-0.56c0.29-0.52 0.75-1.33 1.37-2.41 0.63-1.07 1.47-2.16 2.53-3.22 1.05-1.06 2.35-1.96 3.87-2.7 1.51-0.73 3.28-1.06 5.3-0.96 2.22 0.1 3.97 0.63 5.23 1.6 1.27 0.96 1.86 2.52 1.76 4.68 -0.05 1.15-0.31 2.39-0.78 3.75 -0.47 1.36-0.93 2.61-1.39 3.74l-25.42 61.92 8.98 0.41 -0.47 1.4 -16.05-0.74L1744.88 646.15z"/>
  <path fill="#FFFFFF" d="M1651.6 867.91c-0.34 1-0.67 2.03-1.01 3.06 -0.34 1.05-0.5 2.05-0.5 2.99 0 0.8 0.24 1.49 0.71 2.06 0.47 0.59 1.18 0.86 2.12 0.86 1.08 0 2.14-0.36 3.18-1.1 1.05-0.73 2.01-1.59 2.88-2.58 0.88-0.97 1.62-1.97 2.23-2.98 0.61-1.01 1.05-1.81 1.31-2.44l1.21 0.52c-0.27 0.53-0.69 1.36-1.26 2.47 -0.57 1.12-1.36 2.23-2.37 3.34 -1.01 1.11-2.26 2.07-3.73 2.87 -1.48 0.82-3.24 1.22-5.25 1.22 -2.22 0-3.99-0.45-5.31-1.36 -1.31-0.92-1.96-2.45-1.96-4.61 0-1.14 0.2-2.4 0.6-3.78 0.4-1.37 0.81-2.63 1.21-3.78l22.53-63.03h-8.99l0.4-1.43h16.06L1651.6 867.91z"/>
  <path fill="#FFFFFF" d="M1701.12 781.55c-0.38 1-0.75 2.02-1.12 3.06 -0.38 1.03-0.58 2-0.61 2.96 -0.03 0.81 0.17 1.5 0.63 2.09 0.45 0.6 1.15 0.9 2.08 0.93 1.08 0.04 2.15-0.29 3.22-0.99 1.07-0.7 2.06-1.52 2.97-2.46 0.91-0.95 1.69-1.92 2.33-2.91 0.64-0.97 1.1-1.77 1.4-2.37l1.19 0.54c-0.29 0.53-0.74 1.35-1.35 2.43 -0.61 1.09-1.44 2.17-2.49 3.25 -1.05 1.09-2.33 1.99-3.84 2.75 -1.51 0.74-3.27 1.1-5.29 1.02 -2.22-0.08-3.97-0.61-5.25-1.55 -1.28-0.96-1.88-2.51-1.8-4.67 0.04-1.14 0.29-2.4 0.75-3.76 0.45-1.36 0.9-2.61 1.35-3.74l24.81-62.19 -8.99-0.31 0.46-1.42 16.05 0.59L1701.12 781.55z"/>
  <path fill="#FFFFFF" d="M1713.58 776.94c0.35-1.02 0.69-2.05 1.04-3.09 0.34-1.03 0.52-2.02 0.52-2.98 0-0.81-0.22-1.49-0.7-2.07 -0.46-0.59-1.17-0.86-2.12-0.88 -1.07-0.01-2.13 0.35-3.19 1.09 -1.05 0.73-2.01 1.59-2.9 2.56 -0.88 0.98-1.63 1.96-2.24 2.98 -0.61 1-1.05 1.8-1.33 2.4l-1.21-0.51c0.27-0.53 0.71-1.36 1.28-2.46 0.58-1.12 1.38-2.22 2.4-3.32 1.02-1.12 2.27-2.06 3.76-2.85 1.49-0.8 3.24-1.19 5.26-1.19 2.22 0.02 3.99 0.49 5.29 1.4 1.31 0.93 1.96 2.46 1.94 4.62 -0.01 1.15-0.22 2.41-0.63 3.79 -0.41 1.39-0.83 2.65-1.24 3.79l-22.95 62.89 8.99 0.06 -0.41 1.4 -16.06-0.1L1713.58 776.94z"/>
  <path fill="#FFFFFF" d="M1704.82 733.38c-0.38 1-0.76 2-1.14 3.03 -0.38 1.03-0.59 2.02-0.63 2.96 -0.04 0.81 0.17 1.52 0.62 2.09 0.45 0.6 1.15 0.92 2.09 0.95 1.08 0.04 2.15-0.29 3.22-0.99 1.07-0.7 2.07-1.5 2.98-2.46 0.91-0.93 1.7-1.89 2.34-2.89 0.65-0.97 1.12-1.77 1.41-2.36l1.2 0.56c-0.29 0.53-0.75 1.33-1.36 2.42 -0.62 1.07-1.45 2.16-2.51 3.23 -1.05 1.06-2.34 1.98-3.85 2.72 -1.51 0.75-3.28 1.09-5.3 1 -2.21-0.1-3.97-0.61-5.24-1.57 -1.27-0.96-1.87-2.52-1.78-4.68 0.05-1.15 0.3-2.39 0.76-3.75 0.46-1.36 0.92-2.61 1.36-3.74l25.09-62.07 -8.99-0.36 0.47-1.39 16.04 0.64L1704.82 733.38z"/>
  <path fill="#FFFFFF" d="M1709.16 743.54l12.12 10.54 -0.62 1.33 -6.79-5.89 -24.36 62.36c-0.45 1.13-0.97 2.33-1.57 3.65 -0.61 1.31-1.28 2.39-2.03 3.25 -1.41 1.63-2.91 2.36-4.5 2.17 -1.58-0.17-3.22-0.99-4.9-2.43 -1.53-1.33-2.58-2.79-3.17-4.37 -0.58-1.57-0.9-3.12-0.93-4.62 -0.03-1.49 0.1-2.85 0.4-4.07 0.3-1.2 0.52-2.1 0.68-2.69l1.25 0.4c-0.2 0.65-0.4 1.55-0.6 2.71 -0.2 1.15-0.29 2.39-0.28 3.7 0.02 1.32 0.18 2.59 0.48 3.84 0.3 1.24 0.86 2.21 1.67 2.92 0.71 0.61 1.43 0.86 2.16 0.74 0.73-0.11 1.36-0.5 1.89-1.1 0.62-0.71 1.15-1.57 1.58-2.59 0.43-1 0.85-1.99 1.26-2.99L1709.16 743.54z"/>
  <path fill="#FFFFFF" d="M1662.06 772.89c0.33-1.02 0.66-2.05 0.99-3.09 0.33-1.05 0.49-2.05 0.48-2.99 0-0.82-0.24-1.49-0.72-2.06 -0.48-0.59-1.18-0.86-2.13-0.85 -1.08 0-2.14 0.39-3.17 1.13 -1.04 0.75-1.99 1.62-2.87 2.59 -0.87 0.99-1.6 1.98-2.2 3 -0.6 1.01-1.03 1.82-1.3 2.43l-1.21-0.5c0.27-0.55 0.68-1.36 1.25-2.48 0.56-1.13 1.35-2.23 2.35-3.35 1-1.12 2.25-2.09 3.72-2.9 1.48-0.82 3.23-1.23 5.25-1.25 2.23-0.01 3.99 0.43 5.31 1.33 1.32 0.9 1.98 2.42 2 4.58 0.01 1.15-0.18 2.41-0.58 3.79 -0.4 1.4-0.79 2.66-1.18 3.81l-22.12 63.19 8.99-0.06 -0.39 1.42 -16.06 0.1L1662.06 772.89z"/>
  <path fill="#FFFFFF" d="M1733.71 727.11c-0.39 1-0.78 2.02-1.17 3.02 -0.39 1.03-0.61 2.02-0.66 2.96 -0.04 0.82 0.16 1.52 0.6 2.12 0.44 0.6 1.14 0.91 2.08 0.96 1.08 0.04 2.15-0.26 3.24-0.95 1.08-0.67 2.08-1.49 3.01-2.42 0.93-0.93 1.72-1.87 2.37-2.85 0.66-0.97 1.14-1.76 1.44-2.36l1.19 0.56c-0.3 0.53-0.76 1.33-1.38 2.41 -0.63 1.07-1.48 2.16-2.55 3.2 -1.06 1.06-2.36 1.96-3.87 2.69 -1.53 0.73-3.3 1.05-5.31 0.93 -2.22-0.11-3.96-0.64-5.22-1.63 -1.27-0.97-1.84-2.53-1.73-4.69 0.06-1.15 0.33-2.39 0.8-3.75 0.47-1.36 0.94-2.59 1.4-3.72l25.76-61.79 -8.98-0.46 0.47-1.39 16.05 0.83L1733.71 727.11z"/>
  <path fill="#FFFFFF" d="M1652.36 820.8l-12.47-10.13 0.58-1.35 6.98 5.67 22.25-63.14c0.41-1.14 0.89-2.39 1.44-3.71 0.56-1.32 1.2-2.43 1.92-3.33 1.36-1.67 2.83-2.43 4.42-2.32 1.59 0.13 3.25 0.89 4.98 2.29 1.57 1.26 2.67 2.69 3.31 4.25 0.64 1.56 1 3.09 1.09 4.58 0.08 1.52 0 2.88-0.25 4.09 -0.26 1.22-0.45 2.14-0.58 2.71l-1.26-0.36c0.17-0.64 0.35-1.54 0.51-2.7 0.17-1.19 0.22-2.41 0.15-3.72 -0.07-1.32-0.27-2.59-0.61-3.82 -0.34-1.23-0.93-2.19-1.77-2.88 -0.73-0.6-1.46-0.81-2.19-0.66 -0.72 0.16-1.34 0.53-1.85 1.16 -0.6 0.73-1.09 1.62-1.49 2.62 -0.4 1.03-0.78 2.05-1.16 3.05L1652.36 820.8z"/>
  <path fill="#FFFFFF" d="M1711.33 737.89l12.12 10.54 -0.62 1.33 -6.78-5.89 -24.36 62.33c-0.45 1.14-0.97 2.36-1.58 3.68 -0.6 1.3-1.27 2.39-2.02 3.25 -1.41 1.63-2.92 2.33-4.5 2.17 -1.59-0.18-3.22-1-4.9-2.46 -1.53-1.33-2.58-2.77-3.17-4.36 -0.59-1.58-0.9-3.12-0.93-4.61 -0.03-1.52 0.1-2.85 0.39-4.08 0.3-1.22 0.53-2.12 0.68-2.69l1.25 0.41c-0.19 0.63-0.39 1.53-0.6 2.69 -0.21 1.16-0.3 2.4-0.28 3.71 0.02 1.31 0.18 2.59 0.48 3.83 0.3 1.25 0.86 2.23 1.67 2.95 0.71 0.61 1.43 0.86 2.16 0.73 0.73-0.12 1.36-0.49 1.89-1.1 0.61-0.72 1.15-1.56 1.58-2.58 0.43-1.01 0.85-2 1.26-2.99L1711.33 737.89z"/>
  <path fill="#FFFFFF" d="M1640.39 770.34c-0.29 1.02-0.58 2.06-0.86 3.12 -0.29 1.06-0.41 2.06-0.37 3.01 0.04 0.8 0.31 1.47 0.8 2.03 0.5 0.54 1.21 0.81 2.16 0.76 1.08-0.06 2.12-0.46 3.13-1.26 1-0.79 1.93-1.68 2.76-2.71 0.83-1.01 1.53-2.03 2.08-3.06 0.56-1.05 0.96-1.86 1.21-2.49l1.23 0.44c-0.24 0.56-0.62 1.4-1.15 2.55 -0.52 1.13-1.26 2.27-2.22 3.43 -0.96 1.16-2.16 2.18-3.6 3.06 -1.44 0.86-3.17 1.36-5.19 1.45 -2.22 0.1-4-0.27-5.35-1.12 -1.36-0.84-2.08-2.36-2.18-4.49 -0.05-1.15 0.09-2.42 0.43-3.82 0.34-1.39 0.69-2.68 1.04-3.84l19.61-64.02 -8.98 0.42 0.34-1.43 16.05-0.75L1640.39 770.34z"/>
  <rect x="1824.87" y="864.05" fill="#EE8384" width="956.45" height="1.5"/>
  <defs>
    <polygon id="SVGID_1_" points="2804.04 879.65 2778.74 871.5 2782.93 858.48 2808.24 866.63 "/>
  </defs>
  <clipPath id="SVGID_2_">
    <use xlink:href="#SVGID_1_" overflow="visible"/>
  </clipPath>
  <path clip-path="url(#SVGID_2_)" fill="#EF8484" d="M2806.59 868.52c-0.33-1.06-0.79-1.9-1.43-2.53 -0.52-0.52-1.02-0.8-1.52-0.86 -0.5-0.06-1.1-0.06-1.83 0.03 -0.73 0.08-1.2 0.11-1.46 0.08 -0.7-0.1-1.2-0.44-1.5-1.06 -0.17-0.37-0.37-0.57-0.57-0.6 -0.17-0.02-0.29 0.07-0.36 0.24 0.11 0.43 0.27 0.75 0.47 0.95 0.19 0.17 0.29 0.28 0.26 0.33 0 0 0 0.03-0.01 0.07 -0.03 0.03-0.03 0.07-0.03 0.11 -0.03 0.26 0.07 0.47 0.31 0.63 0.24 0.17 0.5 0.32 0.76 0.49 -0.6 0.66-1 1.44-1.13 2.33 -0.15 1.03 0 1.93 0.47 2.72 0.49 0.79 1.13 1.23 1.95 1.33 0.37 0.06 0.76-0.03 1.1-0.24 0.36-0.22 0.56-0.52 0.6-0.85 0.04-0.3 0.03-0.54-0.07-0.74 -0.07-0.2-0.2-0.3-0.4-0.33 -0.5-0.06-0.77 0.21-0.86 0.8 -0.03 0.2 0.09 0.4 0.37 0.61 -0.14 0.17-0.27 0.23-0.34 0.23l-0.03-0.01c-0.03 0-0.1 0-0.19 0 -0.07 0-0.14 0-0.2 0 -0.66-0.09-1.16-0.49-1.53-1.19s-0.47-1.47-0.34-2.33c0.1-0.69 0.5-1.41 1.23-2.15 0.56-0.6 1.09-0.87 1.49-0.81h0.07c0.09 0.01 0.13 0.04 0.16 0.11 -0.23 0.16-0.36 0.42-0.43 0.76 -0.03 0.27-0.03 0.44-0.01 0.53 0.04 0.12 0.15 0.2 0.34 0.22 0.2 0.03 0.53-0.03 0.99-0.19 0.44-0.15 0.68-0.23 0.73-0.22 0.13 0.01 0.27 0.08 0.47 0.19 0.23 0.16 0.4 0.32 0.54 0.52 -0.1 0.1-0.2 0.17-0.36 0.2 -0.1 0.01-0.24 0.03-0.37 0.05 -0.1 0.03-0.2 0.09-0.3 0.2 -0.1 0.11-0.17 0.18-0.17 0.22 -0.03 0.2 0.01 0.36 0.14 0.47 0.1 0.09 0.29 0.19 0.57 0.29 0.59 0.2 0.9 0.31 0.91 0.31 0.17 0.02 0.4 0.17 0.63 0.46 0.23 0.28 0.33 0.51 0.3 0.73l-0.01 0.03c-0.02 0.08-0.05 0.13-0.09 0.17 -0.3-0.17-0.46-0.26-0.49-0.26 -0.27-0.03-0.43 0.18-0.5 0.63 -0.01 0.12 0.06 0.37 0.2 0.73 0.13 0.37 0.19 0.7 0.16 1 -0.1 0.63-0.53 1.21-1.29 1.69 -0.9 0.6-1.99 0.82-3.25 0.66 -1.69-0.21-3.02-0.91-4.01-2.09 0.23 0.03 0.49 0.1 0.76 0.22 0.3 0.11 0.5 0.18 0.59 0.2 0.03 0 0.23-0.02 0.57-0.06 0.13-0.07 0.19-0.13 0.19-0.2 0.01-0.04-0.04-0.11-0.16-0.2 -0.1-0.08-0.2-0.13-0.33-0.14 -0.07 0-0.17-0.03-0.3-0.07 -0.16-0.04-0.27-0.07-0.36-0.09 -0.14-0.01-0.4-0.2-0.77-0.55 -0.43-0.41-0.79-0.85-1.07-1.31 -0.22-0.37-0.35-0.63-0.32-0.76 0-0.01 0.07-0.08 0.17-0.2 0.1-0.13 0.17-0.24 0.17-0.37 0.06-0.33 0.03-0.56-0.1-0.63 -0.44-0.27-0.73-0.6-0.86-1 -0.07-0.2-0.1-0.52-0.07-0.93 0.01-0.58-0.13-1.1-0.43-1.56 -0.33-0.49-0.83-0.96-1.53-1.46 -0.76-0.52-1.46-0.92-2.14-1.19 -0.74-0.3-1.58-0.5-2.52-0.61 -2.11-0.28-4.02 0.01-5.69 0.87 -0.6 0.3-0.96 0.5-1.1 0.6 -0.17 0.16-0.3 0.36-0.33 0.6 -0.01 0.1-0.03 0.2-0.03 0.29 0 0.08 0 0.12 0 0.11 -0.07 0.53-0.03 0.8 0.17 0.83 0.13 0.02 0.3-0.14 0.53-0.5 0.08-0.13 0.23-0.24 0.49-0.35 0.31-0.15 0.63-0.28 0.94-0.41 0.3-0.13 0.73-0.23 1.32-0.28 0.5-0.05 0.94-0.06 1.27-0.02 0.5 0.07 0.92 0.19 1.26 0.39 0.21 0.1 0.43 0.27 0.66 0.48 0.2 0.17 0.33 0.27 0.43 0.29 0.07 0 0.13-0.03 0.23-0.12 0.07-0.08 0.17-0.13 0.27-0.11 0.07 0 0.17 0.1 0.34 0.28 0.18 0.19 0.3 0.37 0.39 0.59 0.04 0.27 0.07 0.48 0.07 0.65 0.03 0.42 0.08 0.78 0.19 1.02 0.1 0.26 0.2 0.39 0.31 0.4 0.19 0.02 0.36-0.13 0.5-0.46 0.16-0.31 0.29-0.47 0.37-0.46 0.1 0.02 0.17 0.16 0.23 0.41 0.06 0.26 0.07 0.51 0.03 0.74 -0.01 0.08-0.1 0.27-0.23 0.54 -0.14 0.27-0.22 0.47-0.24 0.6v0.02c-0.03 0.22-0.03 0.43 0.03 0.63 0.07 0.2 0.14 0.3 0.24 0.31 0.1 0.02 0.23-0.03 0.37-0.13 0.16-0.1 0.26-0.14 0.29-0.14 0 0 0.01 0.01 0.03 0.01l0.01 0.02c0.03 0.13 0.03 0.23 0.03 0.28 -0.06 0.3-0.27 0.73-0.69 1.3 -0.43 0.62-0.84 1.05-1.26 1.3 -0.83 0.52-1.56 0.73-2.19 0.65 -0.74-0.1-1.36-0.39-1.83-0.86 -0.38-0.4-0.56-0.73-0.51-0.99l0-0.05c0.01-0.14 0.1-0.36 0.21-0.65 0.13-0.29 0.19-0.5 0.2-0.6 0.03-0.17 0-0.3-0.07-0.41 -0.07-0.11-0.17-0.18-0.3-0.19 -0.26-0.03-0.56 0.14-0.92 0.53 -0.04-0.06-0.07-0.1-0.07-0.17 0.03-0.26 0.26-0.49 0.63-0.72 0.4-0.23 0.6-0.44 0.63-0.66 0.03-0.13 0-0.27-0.07-0.4 -0.09-0.14-0.19-0.21-0.33-0.23h-0.03c0.17-0.27 0.47-0.47 0.9-0.64 0.42-0.16 0.79-0.2 1.12-0.17 0.24 0.03 0.5 0.14 0.76 0.34 0.25 0.2 0.37 0.42 0.37 0.65v0.01c-0.03 0.1-0.07 0.13-0.16 0.12 -0.04 0-0.1-0.02-0.17-0.06 -0.07-0.03-0.1-0.06-0.14-0.06 -0.23-0.03-0.43 0.03-0.63 0.2 -0.2 0.17-0.3 0.36-0.33 0.59 -0.06 0.23 0.01 0.46 0.17 0.67 0.17 0.21 0.39 0.34 0.63 0.37 0.36 0.03 0.66-0.07 0.9-0.31 0.27-0.26 0.43-0.62 0.5-1.1 0.07-0.49-0.07-0.93-0.44-1.36 -0.36-0.42-0.83-0.66-1.39-0.73 -0.83-0.1-1.6 0.14-2.32 0.77 -0.72 0.63-1.13 1.39-1.27 2.25 -0.17 1.07 0.1 2.04 0.77 2.89 0.69 0.86 1.56 1.34 2.62 1.47l0.53 0.07c0.4 0.06 0.83 0.02 1.3-0.1 0.56-0.15 1.09-0.4 1.53-0.73 0.46-0.31 0.89-0.83 1.32-1.5 0.4-0.67 0.63-1.23 0.7-1.68 0.11-0.74 0.01-1.6-0.33-2.59 -0.33-1-0.76-1.7-1.3-2.19 -1.16-1.01-2.46-1.63-3.92-1.8 -0.63-0.07-1.22-0.1-1.79-0.07 -0.4 0.01-0.77 0.06-1.13 0.13l-0.46 0.08 -0.1-0.01c-0.03 0-0.04-0.02-0.04-0.03 0.1-0.2 0.6-0.39 1.5-0.53 1.06-0.17 2.19-0.19 3.41-0.02 0.63 0.07 1.3 0.3 2.03 0.66 0.73 0.37 1.2 0.73 1.46 1.1 0.07 0.12 0.24 0.46 0.5 1 0.16 0.33 0.33 0.5 0.53 0.52 0.11 0.01 0.23-0.06 0.34-0.2 0.2-0.29 0.3-0.43 0.33-0.44 0.33 0.55 0.47 0.97 0.43 1.24 -0.01 0.1-0.06 0.23-0.1 0.4 -0.07 0.17-0.1 0.3-0.11 0.34 -0.02 0.22-0.02 0.4 0.05 0.56 0.04 0.17 0.11 0.26 0.21 0.27 0.09 0.02 0.19-0.03 0.28-0.11 0.15-0.13 0.25-0.22 0.35-0.26 0.03 0.12 0.11 0.23 0.23 0.36 0.07 0.04 0.07 0.17 0.07 0.31l-0.03 0.11c-0.01 0.08-0.04 0.19-0.13 0.32 -0.07 0.13-0.1 0.22-0.1 0.26 -0.06 0.34 0.03 0.6 0.21 0.73 0.16 0.1 0.3 0.2 0.43 0.28 0.1 0.36 0.17 0.65 0.22 0.91 0.08 0.31 0.15 0.62 0.24 0.94 0.07 0.43 0.07 0.86 0.02 1.3 -0.05 0.27-0.11 0.47-0.22 0.63 -0.13 0.17-0.17 0.26-0.19 0.27 -0.01 0.16 0.06 0.23 0.19 0.26 0.11 0.01 0.27-0.09 0.47-0.3 0.2-0.22 0.31-0.43 0.34-0.61v-0.09c0.03-0.13 0.06-0.26 0.09-0.39 0.54 0.76 1.2 1.34 1.93 1.73 0.7 0.36 1.59 0.6 2.69 0.73 1.16 0.16 2.19-0.04 3.13-0.57 0.75-0.42 1.35-0.96 1.84-1.65 0.47-0.67 0.77-1.43 0.9-2.23C2806.86 870.27 2806.83 869.34 2806.59 868.52"/>
</svg>